<svg aria-hidden="true" style="position: absolute; width: 0; height: 0; overflow: hidden;" version="1.1" xmlns="http://www.w3.org/2000/svg" xmlns:xlink="http://www.w3.org/1999/xlink">
<defs>
<symbol id="facebook" viewBox="0 0 32 32">
<path d="M19 6h5v-6h-5c-3.86 0-7 3.14-7 7v3h-4v6h4v16h6v-16h5l1-6h-6v-3c0-0.542 0.458-1 1-1z"></path>
</symbol>
<symbol id="twitter" viewBox="0 0 32 32">
<path d="M32 7.075c-1.175 0.525-2.444 0.875-3.769 1.031 1.356-0.813 2.394-2.1 2.887-3.631-1.269 0.75-2.675 1.3-4.169 1.594-1.2-1.275-2.906-2.069-4.794-2.069-3.625 0-6.563 2.938-6.563 6.563 0 0.512 0.056 1.012 0.169 1.494-5.456-0.275-10.294-2.888-13.531-6.862-0.563 0.969-0.887 2.1-0.887 3.3 0 2.275 1.156 4.287 2.919 5.463-1.075-0.031-2.087-0.331-2.975-0.819 0 0.025 0 0.056 0 0.081 0 3.181 2.263 5.838 5.269 6.437-0.55 0.15-1.131 0.231-1.731 0.231-0.425 0-0.831-0.044-1.237-0.119 0.838 2.606 3.263 4.506 6.131 4.563-2.25 1.762-5.075 2.813-8.156 2.813-0.531 0-1.050-0.031-1.569-0.094 2.913 1.869 6.362 2.95 10.069 2.95 12.075 0 18.681-10.006 18.681-18.681 0-0.287-0.006-0.569-0.019-0.85 1.281-0.919 2.394-2.075 3.275-3.394z"></path>
</symbol>
<symbol id="youtube" viewBox="0 0 32 32">
<path d="M31.681 9.6c0 0-0.313-2.206-1.275-3.175-1.219-1.275-2.581-1.281-3.206-1.356-4.475-0.325-11.194-0.325-11.194-0.325h-0.012c0 0-6.719 0-11.194 0.325-0.625 0.075-1.987 0.081-3.206 1.356-0.963 0.969-1.269 3.175-1.269 3.175s-0.319 2.588-0.319 5.181v2.425c0 2.587 0.319 5.181 0.319 5.181s0.313 2.206 1.269 3.175c1.219 1.275 2.819 1.231 3.531 1.369 2.563 0.244 10.881 0.319 10.881 0.319s6.725-0.012 11.2-0.331c0.625-0.075 1.988-0.081 3.206-1.356 0.962-0.969 1.275-3.175 1.275-3.175s0.319-2.587 0.319-5.181v-2.425c-0.006-2.588-0.325-5.181-0.325-5.181zM12.694 20.15v-8.994l8.644 4.513-8.644 4.481z"></path>
</symbol>
<symbol id="vimeo" viewBox="0 0 32 32">
<path d="M31.988 8.563c-0.144 3.113-2.319 7.381-6.525 12.794-4.35 5.65-8.031 8.481-11.044 8.481-1.863 0-3.444-1.719-4.731-5.163-0.863-3.156-1.719-6.313-2.581-9.469-0.956-3.444-1.981-5.162-3.081-5.162-0.237 0-1.075 0.506-2.513 1.506l-1.506-1.938c1.581-1.387 3.138-2.775 4.669-4.162 2.106-1.819 3.688-2.775 4.744-2.875 2.487-0.237 4.025 1.463 4.6 5.106 0.619 3.931 1.050 6.375 1.294 7.331 0.719 3.263 1.506 4.894 2.369 4.894 0.669 0 1.675-1.056 3.019-3.175 1.337-2.113 2.056-3.725 2.156-4.831 0.194-1.825-0.525-2.744-2.156-2.744-0.769 0-1.556 0.175-2.369 0.525 1.575-5.15 4.575-7.65 9.012-7.506 3.281 0.087 4.831 2.219 4.644 6.388z"></path>
</symbol>
<symbol id="icon-china-flag" viewBox="0 0 42 32">
<path fill="#fff" style="fill: var(--color1, #fff)" d="M2.456 0h36.919c1.337 0 2.422 1.084 2.422 2.422v27.157c0 1.337-1.084 2.422-2.422 2.422h-36.919c-1.337 0-2.422-1.084-2.422-2.422v-27.157c0-1.337 1.084-2.422 2.422-2.422z"></path>
<path fill="#f1361d" style="fill: var(--color2, #f1361d)" d="M0.035 0h41.763v32h-41.763v-32z"></path>
<path fill="#ffdc42" style="fill: var(--color3, #ffdc42)" d="M15.064 9.532l1.444 0.264 1.083 1.059 0.246-1.55 0.986-1.162-1.444-0.264-1.083-1.059-0.246 1.55-0.986 1.162zM18.93 14.951l1.252-0.817 1.465 0.036-0.762-1.343 0.034-1.571-1.252 0.817-1.465-0.036 0.762 1.343-0.034 1.571zM17.234 23.724l-1.224 0.864-0.017-1.572-0.805-1.313 1.465-0.019 1.224-0.864 0.017 1.572 0.805 1.313-1.465 0.019zM18.297 19.66l1.456-0.173 1.313 0.697-0.161-1.562 0.65-1.409-1.456 0.173-1.313-0.697 0.161 1.562-0.65 1.409z"></path>
<path fill="#ffdc42" style="fill: var(--color3, #ffdc42)" d="M9.978 17.734l-3.507 2.682 1.294-4.406-3.461-2.749 4.306-0.042 1.368-4.381 1.368 4.381 4.306 0.042-3.461 2.749 1.294 4.406-3.507-2.682z"></path>
</symbol>
<symbol id="icon-germany-flag" viewBox="0 0 42 32">
<path fill="#fff" style="fill: var(--color1, #fff)" d="M2.496 0h36.84c1.359 0 2.462 1.102 2.462 2.462v27.077c0 1.359-1.102 2.462-2.462 2.462h-36.84c-1.359 0-2.462-1.102-2.462-2.462v-27.077c0-1.359 1.102-2.462 2.462-2.462z"></path>
<path fill="#262626" style="fill: var(--color4, #262626)" d="M0.035 10.667h41.763v-10.667h-41.763v10.667z"></path>
<path fill="#f01515" style="fill: var(--color5, #f01515)" d="M0.035 21.333h41.763v-10.667h-41.763v10.667z"></path>
<path fill="#ffd521" style="fill: var(--color6, #ffd521)" d="M0.035 32h41.763v-10.667h-41.763v10.667z"></path>
</symbol>
<symbol id="icon-iran-flag" viewBox="0 0 42 32">
<path fill="#fff" style="fill: var(--color1, #fff); stroke: var(--color7, #f5f5f5)" stroke="#f5f5f5" stroke-linejoin="miter" stroke-linecap="butt" stroke-miterlimit="4" stroke-width="0.6154" d="M2.496 0.308h36.84c1.19 0 2.154 0.964 2.154 2.154v27.077c0 1.19-0.964 2.154-2.154 2.154h-36.84c-1.19 0-2.154-0.964-2.154-2.154v-27.077c0-1.19 0.964-2.154 2.154-2.154z"></path>
<path fill="#38bb56" style="fill: var(--color8, #38bb56)" d="M0.035 10.667h41.763v-10.667h-41.763v10.667z"></path>
<path fill="#de1b27" style="fill: var(--color9, #de1b27)" d="M0.035 32h41.763v-10.667h-41.763v10.667z"></path>
<path fill="#fff" style="fill: var(--color1, #fff)" opacity="0.5" d="M6.41 8.533c-0.227 0-0.41 0.184-0.41 0.41v1.313c0 0.227 0.184 0.41 0.41 0.41h1.168c0.227 0 0.41-0.184 0.41-0.41v-1.313c0-0.227-0.184-0.41-0.41-0.41h-1.168zM2.433 8.533c-0.227 0-0.41 0.184-0.41 0.41v1.313c0 0.227 0.184 0.41 0.41 0.41h1.168c0.227 0 0.41-0.184 0.41-0.41v-1.313c0-0.227-0.184-0.41-0.41-0.41h-1.168zM9.978 8.943c0-0.227 0.184-0.41 0.41-0.41h1.168c0.227 0 0.41 0.184 0.41 0.41v1.313c0 0.227-0.184 0.41-0.41 0.41h-1.168c-0.227 0-0.41-0.184-0.41-0.41v-1.313zM14.365 8.533c-0.227 0-0.41 0.184-0.41 0.41v1.313c0 0.227 0.184 0.41 0.41 0.41h1.168c0.227 0 0.41-0.184 0.41-0.41v-1.313c0-0.227-0.184-0.41-0.41-0.41h-1.168zM17.933 8.943c0-0.227 0.184-0.41 0.41-0.41h1.168c0.227 0 0.41 0.184 0.41 0.41v1.313c0 0.227-0.184 0.41-0.41 0.41h-1.168c-0.227 0-0.41-0.184-0.41-0.41v-1.313zM22.32 8.533c-0.227 0-0.41 0.184-0.41 0.41v1.313c0 0.227 0.184 0.41 0.41 0.41h1.168c0.227 0 0.41-0.184 0.41-0.41v-1.313c0-0.227-0.184-0.41-0.41-0.41h-1.168zM25.888 8.943c0-0.227 0.184-0.41 0.41-0.41h1.168c0.227 0 0.41 0.184 0.41 0.41v1.313c0 0.227-0.184 0.41-0.41 0.41h-1.168c-0.227 0-0.41-0.184-0.41-0.41v-1.313zM30.276 8.533c-0.227 0-0.41 0.184-0.41 0.41v1.313c0 0.227 0.184 0.41 0.41 0.41h1.168c0.227 0 0.41-0.184 0.41-0.41v-1.313c0-0.227-0.184-0.41-0.41-0.41h-1.168zM33.841 8.943c0-0.227 0.184-0.41 0.41-0.41h1.168c0.227 0 0.41 0.184 0.41 0.41v1.313c0 0.227-0.184 0.41-0.41 0.41h-1.168c-0.227 0-0.41-0.184-0.41-0.41v-1.313zM38.228 8.533c-0.227 0-0.41 0.184-0.41 0.41v1.313c0 0.227 0.184 0.41 0.41 0.41h1.168c0.227 0 0.41-0.184 0.41-0.41v-1.313c0-0.227-0.184-0.41-0.41-0.41h-1.168zM2.023 21.743c0-0.227 0.184-0.41 0.41-0.41h1.168c0.227 0 0.41 0.184 0.41 0.41v1.313c0 0.227-0.184 0.41-0.41 0.41h-1.168c-0.227 0-0.41-0.184-0.41-0.41v-1.313zM6.41 21.333c-0.227 0-0.41 0.184-0.41 0.41v1.313c0 0.227 0.184 0.41 0.41 0.41h1.168c0.227 0 0.41-0.184 0.41-0.41v-1.313c0-0.227-0.184-0.41-0.41-0.41h-1.168zM9.978 21.743c0-0.227 0.184-0.41 0.41-0.41h1.168c0.227 0 0.41 0.184 0.41 0.41v1.313c0 0.227-0.184 0.41-0.41 0.41h-1.168c-0.227 0-0.41-0.184-0.41-0.41v-1.313zM14.365 21.333c-0.227 0-0.41 0.184-0.41 0.41v1.313c0 0.227 0.184 0.41 0.41 0.41h1.168c0.227 0 0.41-0.184 0.41-0.41v-1.313c0-0.227-0.184-0.41-0.41-0.41h-1.168zM17.933 21.743c0-0.227 0.184-0.41 0.41-0.41h1.168c0.227 0 0.41 0.184 0.41 0.41v1.313c0 0.227-0.184 0.41-0.41 0.41h-1.168c-0.227 0-0.41-0.184-0.41-0.41v-1.313zM22.32 21.333c-0.227 0-0.41 0.184-0.41 0.41v1.313c0 0.227 0.184 0.41 0.41 0.41h1.168c0.227 0 0.41-0.184 0.41-0.41v-1.313c0-0.227-0.184-0.41-0.41-0.41h-1.168zM25.888 21.743c0-0.227 0.184-0.41 0.41-0.41h1.168c0.227 0 0.41 0.184 0.41 0.41v1.313c0 0.227-0.184 0.41-0.41 0.41h-1.168c-0.227 0-0.41-0.184-0.41-0.41v-1.313zM30.276 21.333c-0.227 0-0.41 0.184-0.41 0.41v1.313c0 0.227 0.184 0.41 0.41 0.41h1.168c0.227 0 0.41-0.184 0.41-0.41v-1.313c0-0.227-0.184-0.41-0.41-0.41h-1.168zM33.841 21.743c0-0.227 0.184-0.41 0.41-0.41h1.168c0.227 0 0.41 0.184 0.41 0.41v1.313c0 0.227-0.184 0.41-0.41 0.41h-1.168c-0.227 0-0.41-0.184-0.41-0.41v-1.313zM38.228 21.333c-0.227 0-0.41 0.184-0.41 0.41v1.313c0 0.227 0.184 0.41 0.41 0.41h1.168c0.227 0 0.41-0.184 0.41-0.41v-1.313c0-0.227-0.184-0.41-0.41-0.41h-1.168z"></path>
<path fill="#d80915" style="fill: var(--color10, #d80915)" d="M18.334 13.047c-0.757 0.74-1.222 1.795-1.222 2.953h1.641c0-0.717 0.287-1.349 0.728-1.779l-1.147-1.174zM17.112 16c0 2.165 1.65 4.020 3.804 4.020v-1.641c-1.141 0-2.163-1.010-2.163-2.38h-1.641zM20.916 20.021c2.154 0 3.804-1.855 3.804-4.020h-1.641c0 1.369-1.022 2.38-2.163 2.38v1.641zM24.719 16c0-1.136-0.447-2.173-1.179-2.911l-1.165 1.156c0.427 0.43 0.703 1.052 0.703 1.755h1.641z"></path>
<path fill="#d80915" style="fill: var(--color10, #d80915)" d="M20.743 14.933h0.348c0.453 0 0.82 0.367 0.82 0.82v2.626c0 0.453-0.367 0.82-0.82 0.82h-0.348c-0.453 0-0.82-0.367-0.82-0.82v-2.626c0-0.453 0.367-0.821 0.82-0.821z"></path>
</symbol>
<symbol id="icon-italy-flag" viewBox="0 0 42 32">
<path fill="#fff" style="fill: var(--color1, #fff); stroke: var(--color7, #f5f5f5)" stroke="#f5f5f5" stroke-linejoin="miter" stroke-linecap="butt" stroke-miterlimit="4" stroke-width="0.6154" d="M2.496 0.308h36.84c1.19 0 2.154 0.964 2.154 2.154v27.077c0 1.19-0.964 2.154-2.154 2.154h-36.84c-1.19 0-2.154-0.964-2.154-2.154v-27.077c0-1.19 0.964-2.154 2.154-2.154z"></path>
<path fill="#e43d4c" style="fill: var(--color11, #e43d4c)" d="M27.877 0h13.921v32h-13.921v-32z"></path>
<path fill="#1bb65d" style="fill: var(--color12, #1bb65d)" d="M0.035 32h13.921v-32h-13.921v32z"></path>
</symbol>
<symbol id="icon-spain-flag" viewBox="0 0 42 32">
<path fill="#fff" style="fill: var(--color1, #fff)" d="M2.456 0h36.919c1.337 0 2.422 1.084 2.422 2.422v27.157c0 1.337-1.084 2.422-2.422 2.422h-36.919c-1.337 0-2.422-1.084-2.422-2.422v-27.157c0-1.337 1.084-2.422 2.422-2.422z"></path>
<path fill="#dd172c" style="fill: var(--color13, #dd172c)" d="M0.035 8.533h41.763v-8.533h-41.763v8.533z"></path>
<path fill="#dd172c" style="fill: var(--color13, #dd172c)" d="M0.035 32h41.763v-8.533h-41.763v8.533z"></path>
<path fill="#ffd133" style="fill: var(--color14, #ffd133)" d="M0.035 23.466h41.763v-14.933h-41.763v14.933z"></path>
<path fill="#ffedb1" style="fill: var(--color15, #ffedb1)" d="M10.974 14.933h1.989v1.067h-1.989v-1.067z"></path>
<path fill="none" stroke="#a41517" style="stroke: var(--color16, #a41517)" stroke-linejoin="miter" stroke-linecap="butt" stroke-miterlimit="4" stroke-width="0.8072" d="M8.957 14.705c-0.018-0.235 0.167-0.435 0.402-0.435h3.227c0.235 0 0.421 0.2 0.402 0.435l-0.314 4.041c-0.049 0.63-0.575 1.117-1.207 1.117h-0.99c-0.632 0-1.158-0.487-1.207-1.117l-0.314-4.041z"></path>
<path fill="#a41517" style="fill: var(--color16, #a41517)" d="M8.983 16h3.977v1.067h-0.994l-0.994 2.133-0.994-2.133h-0.994v-1.067z"></path>
<path fill="#a41517" style="fill: var(--color16, #a41517)" d="M6.808 12.8h0.374c0.446 0 0.807 0.361 0.807 0.807v5.852c0 0.446-0.361 0.807-0.807 0.807h-0.374c-0.446 0-0.807-0.361-0.807-0.807v-5.852c0-0.446 0.361-0.807 0.807-0.807z"></path>
<path fill="#a41517" style="fill: var(--color16, #a41517)" d="M14.764 12.8h0.374c0.446 0 0.807 0.361 0.807 0.807v5.852c0 0.446-0.361 0.807-0.807 0.807h-0.374c-0.446 0-0.807-0.361-0.807-0.807v-5.852c0-0.446 0.361-0.807 0.807-0.807z"></path>
<path fill="#a41517" style="fill: var(--color16, #a41517)" d="M8.983 12.281c0-0.892 0.723-1.614 1.614-1.614h0.749c0.892 0 1.614 0.723 1.614 1.614v0.115c0 0.223-0.181 0.404-0.404 0.404h-3.17c-0.223 0-0.404-0.181-0.404-0.404v-0.115z"></path>
</symbol>
<symbol id="icon-usa-flag" viewBox="0 0 42 32">
<path fill="#fff" style="fill: var(--color1, #fff)" d="M2.496 0h36.84c1.359 0 2.462 1.102 2.462 2.462v27.077c0 1.359-1.102 2.462-2.462 2.462h-36.84c-1.359 0-2.462-1.102-2.462-2.462v-27.077c0-1.359 1.102-2.462 2.462-2.462z"></path>
<path fill="#d02f44" style="fill: var(--color17, #d02f44)" d="M41.798 0h-41.763v2.133h41.763v-2.133zM41.798 4.267h-41.763v2.133h41.763v-2.133zM0.035 8.533h41.763v2.133h-41.763v-2.133zM41.798 12.8h-41.763v2.133h41.763v-2.133zM0.035 17.067h41.763v2.133h-41.763v-2.133zM41.798 21.334h-41.763v2.133h41.763v-2.133zM0.035 25.6h41.763v2.133h-41.763v-2.133zM41.798 29.867h-41.763v2.133h41.763v-2.133z"></path>
<path fill="#46467f" style="fill: var(--color18, #46467f)" d="M0.035 0h17.898v14.933h-17.898v-14.933z"></path>
<path fill="#000" style="fill: var(--color19, #000)" d="M4.012 3.2c0 0.589-0.445 1.067-0.994 1.067s-0.994-0.478-0.994-1.067c0-0.589 0.445-1.067 0.994-1.067s0.994 0.478 0.994 1.067zM7.989 3.2c0 0.589-0.445 1.067-0.994 1.067s-0.994-0.478-0.994-1.067c0-0.589 0.445-1.067 0.994-1.067s0.994 0.478 0.994 1.067zM10.972 4.267c0.549 0 0.994-0.478 0.994-1.067s-0.445-1.067-0.994-1.067c-0.549 0-0.994 0.478-0.994 1.067s0.445 1.067 0.994 1.067zM15.944 3.2c0 0.589-0.445 1.067-0.994 1.067s-0.994-0.478-0.994-1.067 0.445-1.067 0.994-1.067c0.549 0 0.994 0.478 0.994 1.067zM5.005 6.4c0.549 0 0.994-0.478 0.994-1.067s-0.445-1.067-0.994-1.067c-0.549 0-0.994 0.478-0.994 1.067s0.445 1.067 0.994 1.067zM9.976 5.333c0 0.589-0.445 1.067-0.994 1.067s-0.994-0.478-0.994-1.067c0-0.589 0.445-1.067 0.994-1.067s0.994 0.478 0.994 1.067zM12.96 6.4c0.549 0 0.994-0.478 0.994-1.067s-0.445-1.067-0.994-1.067c-0.549 0-0.994 0.478-0.994 1.067s0.445 1.067 0.994 1.067zM15.944 7.467c0 0.589-0.445 1.067-0.994 1.067s-0.994-0.478-0.994-1.067 0.445-1.067 0.994-1.067c0.549 0 0.994 0.478 0.994 1.067zM10.972 8.534c0.549 0 0.994-0.478 0.994-1.067s-0.445-1.067-0.994-1.067c-0.549 0-0.994 0.478-0.994 1.067s0.445 1.067 0.994 1.067zM7.989 7.467c0 0.589-0.445 1.067-0.994 1.067s-0.994-0.478-0.994-1.067c0-0.589 0.445-1.067 0.994-1.067s0.994 0.478 0.994 1.067zM3.017 8.534c0.549 0 0.994-0.478 0.994-1.067s-0.445-1.067-0.994-1.067c-0.549 0-0.994 0.478-0.994 1.067s0.445 1.067 0.994 1.067zM5.999 9.6c0 0.589-0.445 1.067-0.994 1.067s-0.994-0.478-0.994-1.067c0-0.589 0.445-1.067 0.994-1.067s0.994 0.478 0.994 1.067zM8.982 10.667c0.549 0 0.994-0.478 0.994-1.067s-0.445-1.067-0.994-1.067c-0.549 0-0.994 0.478-0.994 1.067s0.445 1.067 0.994 1.067zM13.954 9.6c0 0.589-0.445 1.067-0.994 1.067s-0.994-0.478-0.994-1.067 0.445-1.067 0.994-1.067c0.549 0 0.994 0.478 0.994 1.067zM14.95 12.8c0.549 0 0.994-0.478 0.994-1.067s-0.445-1.067-0.994-1.067c-0.549 0-0.994 0.478-0.994 1.067s0.445 1.067 0.994 1.067zM11.966 11.733c0 0.589-0.445 1.067-0.994 1.067s-0.994-0.478-0.994-1.067c0-0.589 0.445-1.067 0.994-1.067s0.994 0.478 0.994 1.067zM6.994 12.8c0.549 0 0.994-0.478 0.994-1.067s-0.445-1.067-0.994-1.067-0.994 0.478-0.994 1.067c0 0.589 0.445 1.067 0.994 1.067zM4.011 11.733c0 0.589-0.445 1.067-0.994 1.067s-0.994-0.478-0.994-1.067c0-0.589 0.445-1.067 0.994-1.067s0.994 0.478 0.994 1.067z"></path>
</symbol>
<symbol id="icon-polygon-1" viewBox="0 0 43 32">
<path fill="#f44a45" style="fill: var(--color20, #f44a45)" d="M19.404 3.485c1.373-1.767 4.043-1.767 5.415 0l17.499 22.526c1.75 2.252 0.144 5.532-2.708 5.532h-34.997c-2.852 0-4.457-3.28-2.708-5.532l17.499-22.526z"></path>
</symbol>
<symbol id="icon-polygon-2" viewBox="0 0 43 32">
<path fill="#128e5a" style="fill: var(--color21, #128e5a)" d="M24.665 28.515c-1.373 1.767-4.043 1.767-5.415 0l-17.499-22.525c-1.75-2.252-0.145-5.532 2.708-5.532h34.997c2.852 0 4.457 3.28 2.707 5.532l-17.498 22.525z"></path>
</symbol>
</defs>
</svg>
